<svg xmlns="http://www.w3.org/2000/svg" xmlns:xlink="http://www.w3.org/1999/xlink" width="3176.712" height="1879.728" viewBox="0 0 3176.712 1879.728"><defs><style>.a{fill:url(#a);}.b{fill:url(#m);}.c{fill:url(#s);}.d{filter:url(#z);}.e{filter:url(#w);}.f{filter:url(#t);}.g{filter:url(#q);}.h{filter:url(#n);}.i{filter:url(#k);}.j{filter:url(#h);}.k{filter:url(#e);}.l{filter:url(#b);}</style><linearGradient id="a" x1="0.268" y1="0.043" x2="1.05" y2="1.236" gradientUnits="objectBoundingBox"><stop offset="0" stop-color="#ff9a47"/><stop offset="1" stop-color="#fe6845"/></linearGradient><filter id="b" x="731.712" y="1241" width="448" height="448" filterUnits="userSpaceOnUse"><feOffset dx="15" dy="20" input="SourceAlpha"/><feGaussianBlur stdDeviation="20" result="c"/><feFlood flood-opacity="0.161"/><feComposite operator="in" in2="c"/><feComposite in="SourceGraphic"/></filter><filter id="e" x="2506.712" y="159" width="670" height="670" filterUnits="userSpaceOnUse"><feOffset dx="15" dy="20" input="SourceAlpha"/><feGaussianBlur stdDeviation="20" result="f"/><feFlood flood-opacity="0.161"/><feComposite operator="in" in2="f"/><feComposite in="SourceGraphic"/></filter><filter id="h" x="2127.712" y="1177.5" width="837" height="610" filterUnits="userSpaceOnUse"><feOffset dx="15" dy="20" input="SourceAlpha"/><feGaussianBlur stdDeviation="20" result="i"/><feFlood flood-opacity="0.161"/><feComposite operator="in" in2="i"/><feComposite in="SourceGraphic"/></filter><filter id="k" x="0" y="398.745" width="1554.024" height="656.387" filterUnits="userSpaceOnUse"><feOffset dy="20" input="SourceAlpha"/><feGaussianBlur stdDeviation="20" result="l"/><feFlood flood-opacity="0.161"/><feComposite operator="in" in2="l"/><feComposite in="SourceGraphic"/></filter><linearGradient id="m" x1="0.764" y1="0.463" x2="1.117" y2="1.479" gradientUnits="objectBoundingBox"><stop offset="0" stop-color="#458afc"/><stop offset="1" stop-color="#458afc"/></linearGradient><filter id="n" x="2664.712" y="317" width="354" height="354" filterUnits="userSpaceOnUse"><feOffset dx="15" dy="20" input="SourceAlpha"/><feGaussianBlur stdDeviation="20" result="o"/><feFlood flood-opacity="0.161"/><feComposite operator="in" in2="o"/><feComposite in="SourceGraphic"/></filter><filter id="q" x="2598.712" y="1134" width="270" height="270" filterUnits="userSpaceOnUse"><feOffset dy="11" input="SourceAlpha"/><feGaussianBlur stdDeviation="20" result="r"/><feFlood flood-opacity="0.161"/><feComposite operator="in" in2="r"/><feComposite in="SourceGraphic"/></filter><linearGradient id="s" x1="0.764" y1="0.463" x2="1.117" y2="1.479" gradientUnits="objectBoundingBox"><stop offset="0" stop-color="#7569de"/><stop offset="1" stop-color="#458afc"/></linearGradient><filter id="t" x="819.712" y="1321" width="270" height="270" filterUnits="userSpaceOnUse"><feOffset dy="11" input="SourceAlpha"/><feGaussianBlur stdDeviation="20" result="u"/><feFlood flood-opacity="0.161"/><feComposite operator="in" in2="u"/><feComposite in="SourceGraphic"/></filter><filter id="w" x="1015.712" y="517" width="178" height="178" filterUnits="userSpaceOnUse"><feOffset dy="11" input="SourceAlpha"/><feGaussianBlur stdDeviation="20" result="x"/><feFlood flood-opacity="0.161"/><feComposite operator="in" in2="x"/><feComposite in="SourceGraphic"/></filter><filter id="z" x="857.181" y="0" width="2079.317" height="1879.728" filterUnits="userSpaceOnUse"><feOffset dx="-15" dy="3" input="SourceAlpha"/><feGaussianBlur stdDeviation="20" result="aa"/><feFlood flood-opacity="0.161"/><feComposite operator="in" in2="aa"/><feComposite in="SourceGraphic"/></filter></defs><g transform="translate(969.712 -892)"><g class="l" transform="matrix(1, 0, 0, 1, -969.71, 892)"><path class="a" d="M164,328a165.215,165.215,0,0,1-33.052-3.332,163.1,163.1,0,0,1-58.642-24.677,164.479,164.479,0,0,1-59.418-72.155,163.179,163.179,0,0,1-9.556-30.784,165.6,165.6,0,0,1,0-66.1A163.1,163.1,0,0,1,28.009,72.306a164.479,164.479,0,0,1,72.155-59.418,163.18,163.18,0,0,1,30.785-9.556,165.6,165.6,0,0,1,66.1,0,163.1,163.1,0,0,1,58.642,24.677,164.479,164.479,0,0,1,59.418,72.155,163.182,163.182,0,0,1,9.556,30.785,165.6,165.6,0,0,1,0,66.1,163.1,163.1,0,0,1-24.677,58.642,164.479,164.479,0,0,1-72.155,59.418,163.178,163.178,0,0,1-30.784,9.556A165.214,165.214,0,0,1,164,328Zm0-293.122A129.122,129.122,0,1,0,293.122,164,129.269,129.269,0,0,0,164,34.878Z" transform="translate(776.71 1281)"/></g><g class="k" transform="matrix(1, 0, 0, 1, -969.71, 892)"><path class="a" d="M275,550a277.032,277.032,0,0,1-55.422-5.587,273.493,273.493,0,0,1-98.333-41.379A275.8,275.8,0,0,1,21.611,382.043a273.622,273.622,0,0,1-16.024-51.62,277.684,277.684,0,0,1,0-110.844,273.5,273.5,0,0,1,41.379-98.333A275.8,275.8,0,0,1,167.958,21.611a273.625,273.625,0,0,1,51.62-16.024,277.684,277.684,0,0,1,110.844,0,273.5,273.5,0,0,1,98.333,41.379,275.8,275.8,0,0,1,99.634,120.992,273.63,273.63,0,0,1,16.024,51.62,277.684,277.684,0,0,1,0,110.844,273.492,273.492,0,0,1-41.379,98.333,275.8,275.8,0,0,1-120.992,99.634,273.624,273.624,0,0,1-51.62,16.024A277.03,277.03,0,0,1,275,550Zm0-491.516C155.613,58.484,58.484,155.613,58.484,275S155.613,491.516,275,491.516,491.516,394.388,491.516,275,394.388,58.484,275,58.484Z" transform="translate(2551.71 199)"/></g><g class="j" transform="matrix(1, 0, 0, 1, -969.71, 892)"><path class="a" d="M245,0,490,717H0Z" transform="translate(2172.71 1707.5) rotate(-90)"/></g><g class="i" transform="matrix(1, 0, 0, 1, -969.71, 892)"><path class="a" d="M732.5,0,1465,113H0Z" transform="translate(93.04 438.75) rotate(17)"/></g><g class="h" transform="matrix(1, 0, 0, 1, -969.71, 892)"><path class="b" d="M117,234a117.864,117.864,0,0,1-23.58-2.377,116.359,116.359,0,0,1-41.836-17.6,117.341,117.341,0,0,1-42.39-51.476A116.414,116.414,0,0,1,2.377,140.58a118.142,118.142,0,0,1,0-47.159,116.36,116.36,0,0,1,17.6-41.836A117.341,117.341,0,0,1,71.458,9.194,116.415,116.415,0,0,1,93.421,2.377a118.142,118.142,0,0,1,47.159,0,116.36,116.36,0,0,1,41.836,17.6,117.342,117.342,0,0,1,42.39,51.477,116.416,116.416,0,0,1,6.817,21.962,118.141,118.141,0,0,1,0,47.159,116.358,116.358,0,0,1-17.6,41.836,117.342,117.342,0,0,1-51.476,42.39,116.413,116.413,0,0,1-21.962,6.817A117.863,117.863,0,0,1,117,234Zm0-209.118A92.118,92.118,0,1,0,209.118,117,92.222,92.222,0,0,0,117,24.882Z" transform="translate(2709.71 357)"/></g><g class="g" transform="matrix(1, 0, 0, 1, -969.71, 892)"><circle class="b" cx="75" cy="75" r="75" transform="translate(2658.71 1183)"/></g><g class="f" transform="matrix(1, 0, 0, 1, -969.71, 892)"><circle class="c" cx="75" cy="75" r="75" transform="translate(879.71 1370)"/></g><g class="e" transform="matrix(1, 0, 0, 1, -969.71, 892)"><circle class="c" cx="29" cy="29" r="29" transform="translate(1075.71 566)"/></g><g class="d" transform="matrix(1, 0, 0, 1, -969.71, 892)"><path class="c" d="M1920,949s84,975-900,1215S-16,2708-16,2708c-159.6,18.24,600-312,1224-356,446.016-88.75,712-44,712-44Z" transform="translate(969.71 -892)"/></g></g></svg>