<svg id="Layer_1" data-name="Layer 1" xmlns="http://www.w3.org/2000/svg" xmlns:xlink="http://www.w3.org/1999/xlink" width="2293.43" height="2641" viewBox="0 0 2293.43 2641"><defs><style>.cls-1{fill:#fff;}.cls-2{fill:url(#linear-gradient);}.cls-3{fill:url(#linear-gradient-2);}.cls-4{fill:url(#linear-gradient-3);}</style><linearGradient id="linear-gradient" x1="-0.24" y1="2574.68" x2="0.51" y2="2573.52" gradientTransform="matrix(1919.99, 0, 0, -1918, 919.35, 4939151.17)" gradientUnits="userSpaceOnUse"><stop offset="0" stop-color="#ff9a47"/><stop offset="1" stop-color="#fe6845"/></linearGradient><linearGradient id="linear-gradient-2" x1="-1.57" y1="2579.77" x2="-0.81" y2="2578.62" gradientTransform="matrix(489, 0, 0, -489, 707.34, 1262035.48)" xlink:href="#linear-gradient"/><linearGradient id="linear-gradient-3" x1="-1.81" y1="2580.18" x2="-1.05" y2="2579.02" gradientTransform="matrix(460.01, 0, 0, -460, 2610.34, 1187065.53)" xlink:href="#linear-gradient"/></defs><title>BG</title><rect class="cls-1" x="166.78" width="1920" height="2573"/><g id="Group_10" data-name="Group 10"><path id="Exclusion_6-2" data-name="Exclusion 6-2" class="cls-2" d="M970.72,2642a947.28,947.28,0,0,1-95.27-4.81,934.5,934.5,0,0,1-92.51-14.1c-30-6.14-60.06-13.85-89.29-22.93-28.91-9-57.71-19.51-85.61-31.3-27.63-11.68-55-24.87-81.44-39.2-26.22-14.22-52.07-29.91-76.82-46.62s-48.78-34.65-71.73-53.58-45.16-39.09-66.17-60.08-41.23-43.22-60.13-66.09-37-47-53.64-71.66-32.43-50.55-46.67-76.74c-14.34-26.38-27.54-53.75-39.23-81.36-11.8-27.87-22.34-56.64-31.33-85.52-9.1-29.2-16.82-59.21-23-89.19A929.84,929.84,0,0,1,43.8,1806.4a942.84,942.84,0,0,1,0-190.33,929.81,929.81,0,0,1,14.11-92.42c6.14-30,13.86-60,23-89.2,9-28.87,19.53-57.65,31.33-85.51,11.69-27.61,24.89-55,39.23-81.36,14.24-26.19,29.95-52,46.67-76.74s34.69-48.73,53.64-71.66,39.13-45.11,60.13-66.09S355.14,1011.89,378,993s47.09-37,71.73-53.58,50.6-32.4,76.82-46.62c26.4-14.33,53.81-27.52,81.44-39.2,27.9-11.79,56.7-22.32,85.61-31.3,29.23-9.08,59.27-16.8,89.29-22.93a934.69,934.69,0,0,1,92.52-14.1,946.29,946.29,0,0,1,190.53,0,934.5,934.5,0,0,1,92.51,14.1c30,6.14,60.06,13.85,89.29,22.93,28.91,9,57.71,19.51,85.61,31.3,27.64,11.68,55,24.87,81.45,39.2,26.21,14.22,52.06,29.91,76.82,46.62s48.77,34.65,71.72,53.58,45.16,39.09,66.17,60.08,41.24,43.22,60.13,66.09,37,47,53.64,71.66,32.43,50.55,46.67,76.74c14.35,26.38,27.55,53.75,39.24,81.36,11.8,27.87,22.34,56.64,31.33,85.52,9.09,29.2,16.82,59.21,23,89.19a932.78,932.78,0,0,1,14.12,92.42,944.3,944.3,0,0,1,0,190.33,932.58,932.58,0,0,1-14.12,92.41c-6.14,30-13.87,60-23,89.2-9,28.88-19.53,57.65-31.33,85.52-11.69,27.61-24.89,55-39.24,81.36-14.24,26.19-29.94,52-46.67,76.74s-34.69,48.72-53.64,71.65-39.13,45.12-60.13,66.1-43.27,41.19-66.17,60.08-47.09,36.95-71.72,53.58-50.61,32.39-76.82,46.62c-26.41,14.33-53.81,27.52-81.45,39.19-27.9,11.79-56.7,22.32-85.61,31.3-29.23,9.09-59.27,16.8-89.29,22.94a934.5,934.5,0,0,1-92.51,14.1A947.09,947.09,0,0,1,970.72,2642Zm0-1802.29c-481.06,0-872.44,391-872.44,871.52s391.38,871.53,872.44,871.53,872.43-391,872.43-871.53S1451.78,839.71,970.72,839.71Z" transform="translate(166.78 -1)"/><g id="Circles_" data-name="Circles "><path id="Exclusion_7-2" data-name="Exclusion 7-2" class="cls-3" d="M70.52,964.88a240,240,0,0,1-47.82-4.82,236.16,236.16,0,0,1-84.85-35.71,238,238,0,0,1-86-104.41A235.93,235.93,0,0,1-162,775.4a239.55,239.55,0,0,1,0-95.65,236,236,0,0,1,35.71-84.85,238,238,0,0,1,104.41-86A235.93,235.93,0,0,1,22.7,495.09a239.92,239.92,0,0,1,95.65,0A236.06,236.06,0,0,1,203.2,530.8a238,238,0,0,1,86,104.41A236,236,0,0,1,303,679.76a239.5,239.5,0,0,1,0,95.64,235.89,235.89,0,0,1-35.7,84.85,238,238,0,0,1-104.41,86,235.9,235.9,0,0,1-44.54,13.82A239.33,239.33,0,0,1,70.52,964.88Zm0-424.14c-103,0-186.83,83.81-186.83,186.83S-32.5,914.41,70.52,914.41,257.36,830.6,257.36,727.57,173.54,540.74,70.52,540.74Z" transform="translate(166.78 -1)"/><path id="Exclusion_8-2" data-name="Exclusion 8-2" class="cls-4" d="M1903.42,588.3a225.15,225.15,0,0,1-45-4.54,223.09,223.09,0,0,1-173.7-173.7,225.31,225.31,0,0,1,0-90,223.09,223.09,0,0,1,173.7-173.7,225.31,225.31,0,0,1,90,0,223.17,223.17,0,0,1,173.71,173.7,225.68,225.68,0,0,1,0,90,223.19,223.19,0,0,1-173.71,173.71A225.07,225.07,0,0,1,1903.42,588.3Zm0-399c-96.91,0-175.75,78.84-175.75,175.75s78.84,175.76,175.75,175.76S2079.18,462,2079.18,365.07,2000.33,189.32,1903.42,189.32Z" transform="translate(166.78 -1)"/></g></g></svg>