<svg xmlns="http://www.w3.org/2000/svg" xmlns:xlink="http://www.w3.org/1999/xlink" width="1512" height="1512" viewBox="0 0 1512 1512"><defs><style>.a{fill:url(#a)}.b{filter:url(#b)}</style><linearGradient id="a" x1=".268" x2="1.05" y1=".043" y2="1.236" gradientUnits="objectBoundingBox"><stop offset="0" stop-color="#ff9a47"/><stop offset="1" stop-color="#fe6845"/></linearGradient><filter id="b" width="1512" height="1512" x="0" y="0" filterUnits="userSpaceOnUse"><feOffset dx="15" dy="20" input="SourceAlpha"/><feGaussianBlur result="c" stdDeviation="20"/><feFlood flood-opacity=".161"/><feComposite in2="c" operator="in"/><feComposite in="SourceGraphic"/></filter></defs><g class="b"><path d="M696,1392a707.158,707.158,0,0,1-71.162-3.593,697.793,697.793,0,0,1-69.106-10.547c-22.424-4.589-44.865-10.359-66.7-17.151-21.592-6.716-43.107-14.59-63.946-23.4-20.646-8.732-41.115-18.593-60.84-29.308-19.583-10.638-38.89-22.367-57.385-34.862-18.4-12.434-36.432-25.914-53.58-40.067-17.106-14.117-33.735-29.231-49.426-44.921s-30.8-32.32-44.921-49.426c-14.152-17.149-27.633-35.176-40.067-53.58-12.5-18.5-24.224-37.8-34.862-57.385C73.288,1008.03,63.428,987.56,54.7,966.915c-8.814-20.839-16.688-42.354-23.4-63.946-6.792-21.836-12.562-44.277-17.151-66.7A697.807,697.807,0,0,1,3.593,767.162a706.432,706.432,0,0,1,0-142.324A697.81,697.81,0,0,1,14.14,555.732c4.589-22.424,10.359-44.865,17.151-66.7,6.716-21.592,14.59-43.107,23.4-63.946C63.428,404.44,73.288,383.97,84,364.245c10.638-19.583,22.367-38.89,34.862-57.385,12.434-18.4,25.914-36.432,40.067-53.58,14.117-17.106,29.231-33.735,44.921-49.426s32.32-30.8,49.426-44.921c17.149-14.152,35.176-27.633,53.58-40.067,18.5-12.5,37.8-24.224,57.385-34.862C383.97,73.288,404.44,63.428,425.085,54.7c20.839-8.814,42.354-16.688,63.946-23.4,21.836-6.792,44.277-12.562,66.7-17.151A697.81,697.81,0,0,1,624.838,3.593a706.432,706.432,0,0,1,142.324,0A697.807,697.807,0,0,1,836.268,14.14c22.424,4.589,44.865,10.359,66.7,17.151,21.592,6.716,43.107,14.59,63.946,23.4,20.646,8.732,41.115,18.593,60.84,29.308,19.583,10.638,38.89,22.367,57.385,34.862,18.4,12.434,36.432,25.914,53.58,40.067,17.106,14.117,33.735,29.231,49.426,44.921s30.8,32.32,44.921,49.426c14.152,17.149,27.633,35.176,40.067,53.58,12.495,18.5,24.224,37.8,34.862,57.385,10.715,19.725,20.576,40.195,29.308,60.84,8.814,20.839,16.688,42.354,23.4,63.946,6.792,21.836,12.562,44.277,17.151,66.7a697.793,697.793,0,0,1,10.547,69.106,706.428,706.428,0,0,1,0,142.324,697.79,697.79,0,0,1-10.547,69.106c-4.589,22.424-10.359,44.865-17.151,66.7-6.716,21.592-14.59,43.107-23.4,63.946-8.732,20.646-18.593,41.115-29.308,60.84-10.638,19.583-22.367,38.89-34.862,57.385-12.434,18.4-25.914,36.432-40.067,53.58-14.117,17.106-29.231,33.735-44.921,49.426s-32.32,30.8-49.426,44.921c-17.149,14.152-35.176,27.633-53.58,40.067-18.5,12.495-37.8,24.224-57.385,34.862-19.725,10.715-40.195,20.576-60.84,29.308-20.839,8.814-42.354,16.688-63.946,23.4-21.836,6.792-44.277,12.562-66.7,17.151a697.79,697.79,0,0,1-69.106,10.547A707.158,707.158,0,0,1,696,1392ZM696,44.3C336.652,44.3,44.3,336.652,44.3,696S336.652,1347.7,696,1347.7s651.7-292.352,651.7-651.7S1055.349,44.3,696,44.3Z" class="a" transform="matrix(1, 0, 0, 1, 0, 0) translate(45 40)"/></g></svg>