<svg xmlns="http://www.w3.org/2000/svg" xmlns:xlink="http://www.w3.org/1999/xlink" width="2040" height="1069" viewBox="0 0 2040 1069"><defs><style>.a{fill:url(#a)}.b{fill:url(#d)}.c{filter:url(#e)}.d{filter:url(#b)}</style><linearGradient id="a" x1=".764" x2="1.117" y1=".463" y2="1.479" gradientUnits="objectBoundingBox"><stop offset="0" stop-color="#7569de"/><stop offset="1" stop-color="#458afc"/></linearGradient><filter id="b" width="2040" height="1069" x="0" y="0" filterUnits="userSpaceOnUse"><feOffset dx="-15" dy="3" input="SourceAlpha"/><feGaussianBlur result="c" stdDeviation="20"/><feFlood flood-opacity=".161"/><feComposite in2="c" operator="in"/><feComposite in="SourceGraphic"/></filter><linearGradient id="d" x1=".268" x2="1.05" y1=".043" y2="1.236" gradientUnits="objectBoundingBox"><stop offset="0" stop-color="#ff9a47"/><stop offset="1" stop-color="#fe6845"/></linearGradient><filter id="e" width="544" height="544" x="1314" y="214" filterUnits="userSpaceOnUse"><feOffset dx="15" dy="20" input="SourceAlpha"/><feGaussianBlur result="f" stdDeviation="20"/><feFlood flood-opacity=".161"/><feComposite in2="f" operator="in"/><feComposite in="SourceGraphic"/></filter></defs><g><g class="d"><path d="M0,961s1006.061-37.351,1257.576-117.148S1345.454,282.2,1621.212,481.7,1920,12,1920,12V959.987L0,961Z" class="a" transform="translate(75 57) matrix(1, 0, 0, 1, -75, -57) translate(75 45)"/></g><g class="c"><path d="M212,424a213.569,213.569,0,0,1-42.726-4.307,210.839,210.839,0,0,1-75.806-31.9A212.619,212.619,0,0,1,16.66,294.52,210.938,210.938,0,0,1,4.307,254.726a214.069,214.069,0,0,1,0-85.451,210.84,210.84,0,0,1,31.9-75.806A212.619,212.619,0,0,1,129.48,16.66,210.939,210.939,0,0,1,169.275,4.307a214.069,214.069,0,0,1,85.451,0,210.839,210.839,0,0,1,75.806,31.9A212.619,212.619,0,0,1,407.34,129.48a210.941,210.941,0,0,1,12.353,39.795,214.069,214.069,0,0,1,0,85.451,210.838,210.838,0,0,1-31.9,75.806A212.619,212.619,0,0,1,294.52,407.34a210.936,210.936,0,0,1-39.794,12.353A213.567,213.567,0,0,1,212,424Zm0-378.914C119.963,45.086,45.086,119.963,45.086,212S119.963,378.914,212,378.914,378.914,304.037,378.914,212,304.037,45.086,212,45.086Z" class="b" transform="translate(75 57) matrix(1, 0, 0, 1, -75, -57) translate(1359 254)"/></g></g></svg>