<svg id="Layer_1" data-name="Layer 1" xmlns="http://www.w3.org/2000/svg" xmlns:xlink="http://www.w3.org/1999/xlink" width="792.82" height="167.48" viewBox="0 0 792.82 167.48"><defs><style>.cls-1{fill:url(#linear-gradient);}.cls-2{fill:url(#linear-gradient-2);}.cls-3{fill:url(#linear-gradient-3);}.cls-4{fill:url(#linear-gradient-4);}.cls-5{fill:url(#linear-gradient-5);}.cls-6{fill:url(#linear-gradient-6);}.cls-7{fill:url(#linear-gradient-7);}.cls-8{fill:url(#linear-gradient-8);}.cls-9{fill:none;stroke:#736be0;stroke-linecap:round;stroke-miterlimit:10;stroke-width:2px;}</style><linearGradient id="linear-gradient" x1="147.42" y1="522.1" x2="160.53" y2="399.34" gradientUnits="userSpaceOnUse"><stop offset="0" stop-color="#fe7845"/><stop offset="1" stop-color="#ff9747"/></linearGradient><linearGradient id="linear-gradient-2" x1="218.81" y1="529.72" x2="231.92" y2="406.96" xlink:href="#linear-gradient"/><linearGradient id="linear-gradient-3" x1="293.39" y1="537.69" x2="306.5" y2="414.93" xlink:href="#linear-gradient"/><linearGradient id="linear-gradient-4" x1="425.76" y1="551.82" x2="438.87" y2="429.06" xlink:href="#linear-gradient"/><linearGradient id="linear-gradient-5" x1="556.17" y1="565.75" x2="569.28" y2="442.99" xlink:href="#linear-gradient"/><linearGradient id="linear-gradient-6" x1="666.21" y1="577.5" x2="679.32" y2="454.74" xlink:href="#linear-gradient"/><linearGradient id="linear-gradient-7" x1="742.75" y1="585.68" x2="755.86" y2="462.92" xlink:href="#linear-gradient"/><linearGradient id="linear-gradient-8" x1="829.9" y1="594.99" x2="843.01" y2="472.23" xlink:href="#linear-gradient"/></defs><title>Logo_SVG</title><path class="cls-1" d="M125.17,490.46a35.21,35.21,0,0,0,9.81,8.91,37.64,37.64,0,0,0,12,4.76,37.18,37.18,0,0,0,13,.34A35.75,35.75,0,0,0,172.78,500a36.23,36.23,0,0,0,11.91-10.68,32.61,32.61,0,0,0,5.6-13.39,7.54,7.54,0,0,1,2.15-3.29,6.64,6.64,0,0,1,3-1.41,5.25,5.25,0,0,1,4,.82,6.53,6.53,0,0,1,3.47,3.1,6.45,6.45,0,0,1,.18,5.39,43.16,43.16,0,0,1-7.44,16.56,49.07,49.07,0,0,1-6.9,7.6,54.14,54.14,0,0,1-9.33,6.7,49.75,49.75,0,0,1-19.37,6.5,52.48,52.48,0,0,1-19.66-1.36,51.33,51.33,0,0,1-17.75-8.62,51.71,51.71,0,0,1-20-34.72A51.79,51.79,0,0,1,104,453.53a52.85,52.85,0,0,1,8.66-17.7,49.72,49.72,0,0,1,15.31-13.52,50.54,50.54,0,0,1,19.29-6.52,51.7,51.7,0,0,1,19.61,1.26,52.34,52.34,0,0,1,17.7,8.54,50.25,50.25,0,0,1,13.6,15.14,6.49,6.49,0,0,1,.76,5,6.34,6.34,0,0,1-3.17,4Zm58.49-47A37.07,37.07,0,0,0,161.3,429a38,38,0,0,0-13.46-.33,37.28,37.28,0,0,0-13.23,4.71A36.64,36.64,0,0,0,124,442.54a38.21,38.21,0,0,0-6.32,11.82,36.37,36.37,0,0,0-1.72,13.2,35.27,35.27,0,0,0,3.23,13.15Z" transform="translate(-102.18 -378.87)"/><path class="cls-2" d="M234.34,510.31a6.36,6.36,0,0,1-2,4.75,6.91,6.91,0,0,1-9.6,0,6.36,6.36,0,0,1-2-4.75V385.56a6.33,6.33,0,0,1,2-4.8,7,7,0,0,1,9.6,0,6.33,6.33,0,0,1,2,4.8Z" transform="translate(-102.18 -378.87)"/><path class="cls-3" d="M272.8,490.46a35.21,35.21,0,0,0,9.81,8.91,37.55,37.55,0,0,0,12,4.76,37.13,37.13,0,0,0,13,.34A35.8,35.8,0,0,0,320.41,500a36.43,36.43,0,0,0,11.91-10.68,32.61,32.61,0,0,0,5.6-13.39,7.46,7.46,0,0,1,2.15-3.29,6.64,6.64,0,0,1,3-1.41,5.25,5.25,0,0,1,4,.82,6.39,6.39,0,0,1,3.65,8.49,43.56,43.56,0,0,1-7.44,16.56,49.07,49.07,0,0,1-6.9,7.6,53.84,53.84,0,0,1-9.34,6.7,49.66,49.66,0,0,1-19.36,6.5A52.46,52.46,0,0,1,288,516.52a51.25,51.25,0,0,1-17.75-8.62,51.71,51.71,0,0,1-20.05-34.72,51.79,51.79,0,0,1,1.43-19.65,52.85,52.85,0,0,1,8.66-17.7,49.72,49.72,0,0,1,15.31-13.52,50.54,50.54,0,0,1,19.29-6.52,51.71,51.71,0,0,1,19.61,1.26,52.34,52.34,0,0,1,17.7,8.54,50.25,50.25,0,0,1,13.6,15.14,6.44,6.44,0,0,1,.75,5,6.29,6.29,0,0,1-3.16,4Zm58.48-47A37.07,37.07,0,0,0,308.92,429a38,38,0,0,0-13.46-.33,37.42,37.42,0,0,0-13.23,4.71,36.6,36.6,0,0,0-10.62,9.12,38.21,38.21,0,0,0-6.32,11.82,36.59,36.59,0,0,0-1.73,13.2,35.48,35.48,0,0,0,3.24,13.15Z" transform="translate(-102.18 -378.87)"/><path class="cls-4" d="M381.86,427.76A38.67,38.67,0,0,1,393,418.69a28.49,28.49,0,0,1,13.81-3.45,33,33,0,0,1,16.67,4.21,33.57,33.57,0,0,1,11.93,11.33,40.93,40.93,0,0,1,14-11.33,38.48,38.48,0,0,1,17.54-4.21,33.57,33.57,0,0,1,24.39,10.2,35.92,35.92,0,0,1,7.23,11.06A37,37,0,0,1,501.43,450a3.3,3.3,0,0,1,.11,1V510.2a6.59,6.59,0,0,1-1.94,4.86,6.45,6.45,0,0,1-4.75,1.94,6.81,6.81,0,0,1-4.86-1.94,6.43,6.43,0,0,1-2.05-4.86V450.74a20.9,20.9,0,0,0-1.78-8.63,22.08,22.08,0,0,0-4.8-6.91,22.64,22.64,0,0,0-15.65-6.26,22.93,22.93,0,0,0-9.06,1.84,27.34,27.34,0,0,0-7.72,4.91,23.53,23.53,0,0,0-5.4,7.12,19.16,19.16,0,0,0-2,8.58V510.2a6.67,6.67,0,0,1-1.89,4.86A6.25,6.25,0,0,1,435,517a6.8,6.8,0,0,1-4.86-1.94,6.39,6.39,0,0,1-2.05-4.86V450.31a22.86,22.86,0,0,0-2-8.52,21.85,21.85,0,0,0-20.12-12.85,23.69,23.69,0,0,0-9.07,1.78,25.73,25.73,0,0,0-7.66,4.86,24,24,0,0,0-5.34,7.12,19,19,0,0,0-2,8.58V510.1a6.68,6.68,0,0,1-2,4.91,6.78,6.78,0,0,1-9.6,0,6.68,6.68,0,0,1-2-4.91v-88a6.48,6.48,0,0,1,2.05-4.8,6.74,6.74,0,0,1,4.86-2,6.38,6.38,0,0,1,4.75,2,6.65,6.65,0,0,1,1.94,4.8Z" transform="translate(-102.18 -378.87)"/><path class="cls-5" d="M538.57,490.52a35.36,35.36,0,0,0,9.81,8.91,37.64,37.64,0,0,0,12,4.76,36.94,36.94,0,0,0,13,.33A35.73,35.73,0,0,0,586.18,500a36.44,36.44,0,0,0,11.91-10.68,32.67,32.67,0,0,0,5.6-13.39,7.64,7.64,0,0,1,2.15-3.3,6.85,6.85,0,0,1,3-1.41,5.31,5.31,0,0,1,4,.83,6.53,6.53,0,0,1,3.47,3.1,6.43,6.43,0,0,1,.18,5.38A43.29,43.29,0,0,1,609,497.14a49.07,49.07,0,0,1-6.9,7.6,54.68,54.68,0,0,1-9.33,6.7,49.75,49.75,0,0,1-19.37,6.5,52.48,52.48,0,0,1-19.66-1.36A51.42,51.42,0,0,1,536,508a51.7,51.7,0,0,1-20-34.73,51.76,51.76,0,0,1,1.43-19.64A52.9,52.9,0,0,1,526,435.88a49.82,49.82,0,0,1,15.31-13.51,50.54,50.54,0,0,1,19.29-6.52,51.5,51.5,0,0,1,19.61,1.26,52.15,52.15,0,0,1,17.7,8.54,50.25,50.25,0,0,1,13.6,15.14,6.49,6.49,0,0,1,.76,5,6.34,6.34,0,0,1-3.17,4Zm58.48-47a36.43,36.43,0,0,0-10-9.39,36.88,36.88,0,0,0-12.39-5,37.77,37.77,0,0,0-26.7,4.38,36.58,36.58,0,0,0-10.62,9.12,38.1,38.1,0,0,0-6.32,11.82,36.37,36.37,0,0,0-1.72,13.2,35.32,35.32,0,0,0,3.23,13.15Z" transform="translate(-102.18 -378.87)"/><path class="cls-6" d="M722.12,510.31a6.63,6.63,0,0,1-6.8,6.8,6.49,6.49,0,0,1-4.75-1.94,6.61,6.61,0,0,1-1.94-4.86V464.66q-.21-17.27-7.72-26.49t-21-9.23a29.93,29.93,0,0,0-12.36,2.59,32.05,32.05,0,0,0-10.15,7.18,35,35,0,0,0-7,10.85,38,38,0,0,0-2.8,13.49V510.1a6.68,6.68,0,0,1-2,4.91,6.78,6.78,0,0,1-9.6,0,6.68,6.68,0,0,1-2-4.91v-88a6.44,6.44,0,0,1,2.05-4.8,6.72,6.72,0,0,1,4.86-2,6.38,6.38,0,0,1,4.75,2,6.65,6.65,0,0,1,1.94,4.8v11.55a51.62,51.62,0,0,1,15.05-13.22,36.67,36.67,0,0,1,18.62-5,39.71,39.71,0,0,1,16.78,3.46A36.18,36.18,0,0,1,711,428.78a45.13,45.13,0,0,1,8.2,15.54,69.89,69.89,0,0,1,3,20.34v45.65Z" transform="translate(-102.18 -378.87)"/><path class="cls-7" d="M765.72,415.45h14.35a6.6,6.6,0,0,1,4.86,1.95,6.45,6.45,0,0,1,1.94,4.74,6.75,6.75,0,0,1-1.94,5,6.63,6.63,0,0,1-4.86,1.94H765.72v81.26a6.36,6.36,0,0,1-2,4.75,6.61,6.61,0,0,1-4.8,1.94,6.62,6.62,0,0,1-6.69-6.69V429.05H740.36a6.55,6.55,0,0,1-4.81-2,6.66,6.66,0,0,1-2-4.91,6.34,6.34,0,0,1,2-4.74,6.66,6.66,0,0,1,4.81-1.95h11.87V385.56a6.43,6.43,0,0,1,1.94-4.8,6.56,6.56,0,0,1,4.75-1.89,6.73,6.73,0,0,1,4.8,1.89,6.33,6.33,0,0,1,2,4.8Z" transform="translate(-102.18 -378.87)"/><path class="cls-8" d="M796.2,446.8a51.51,51.51,0,0,1,11.06-16.4,52.71,52.71,0,0,1,16.41-11,51.48,51.48,0,0,1,40,0A51.45,51.45,0,0,1,891,446.8a50.73,50.73,0,0,1,4,20.13,50.06,50.06,0,0,1-4,20,51.61,51.61,0,0,1-27.31,27.35,51.36,51.36,0,0,1-40,0,52.37,52.37,0,0,1-16.41-11A51.57,51.57,0,0,1,796.2,486.9a50.06,50.06,0,0,1-4-20A50.73,50.73,0,0,1,796.2,446.8Zm12.52,34.75a38.69,38.69,0,0,0,8,12,38,38,0,0,0,12,8.15,38.22,38.22,0,0,0,29.78,0,38.74,38.74,0,0,0,12-8.15,38,38,0,0,0,0-53.42,38.24,38.24,0,0,0-12-8.09,38.53,38.53,0,0,0-29.67,0,37.67,37.67,0,0,0-20.13,20.13,37,37,0,0,0-3,14.78A36.37,36.37,0,0,0,808.72,481.55Z" transform="translate(-102.18 -378.87)"/><line class="cls-9" x1="260.54" y1="166.48" x2="532.28" y2="166.48"/></svg>