<svg xmlns="http://www.w3.org/2000/svg" width="1565" height="49" viewBox="0 0 1565 49"><defs><style>.a,.b,.c{fill:#707070;}.a{font-size:16px;font-family:Montserrat-Regular, Montserrat;}.c{font-size:40px;font-family:Montserrat-SemiBold, Montserrat;font-weight:600;}.d{fill:none;stroke:#707070;stroke-linecap:round;stroke-linejoin:round;stroke-width:2px;}</style></defs><g transform="translate(-78 -7)"><text class="a" transform="translate(1234 39)"><tspan x="0" y="0">Home</tspan></text><text class="a" transform="translate(1342 39)"><tspan x="0" y="0">Elements</tspan></text><text class="a" transform="translate(1476 39)"><tspan x="0" y="0">About us</tspan></text><g transform="translate(1619.5 17)"><path class="b" d="M0,23V20.125c0-3.163,5.175-5.751,11.5-5.751S23,16.962,23,20.125V23ZM5.749,5.751A5.75,5.75,0,1,1,11.5,11.5,5.751,5.751,0,0,1,5.749,5.751Z" transform="translate(0.5 0)"/></g><text class="c" transform="translate(78 46)"><tspan x="0" y="0">Customize Portfolio</tspan></text><g transform="translate(515.246 19.5)"><path class="d" d="M23.393,13.946A9.446,9.446,0,1,1,13.946,4.5,9.446,9.446,0,0,1,23.393,13.946Z"/><path class="d" d="M30.111,30.111l-5.136-5.136" transform="translate(-4.357 -4.357)"/></g></g></svg>